<?xml version="1.0" encoding="utf-8"?>
<!-- Generator: Adobe Illustrator 22.1.0, SVG Export Plug-In . SVG Version: 6.00 Build 0)  -->
<svg version="1.1" id="Layer_1" xmlns="http://www.w3.org/2000/svg" xmlns:xlink="http://www.w3.org/1999/xlink" x="0px" y="0px"
	 viewBox="0 0 500 500" style="enable-background:new 0 0 500 500;" xml:space="preserve">
<style type="text/css">
	.st0{fill:#19CA8E;}
</style>
<path class="st0" d="M250,16C120.8,16,16,120.8,16,250s104.8,234,234,234s234-104.8,234-234S379.2,16,250,16z M273.3,356.7
	c-2,2-4.7,3.1-7.4,3.1c-2.7,0-5.3-1-7.4-3.1c-4.1-4.1-4.1-10.7,0-14.8l81.5-81.5H186.9v82c0,5.8-4.7,10.4-10.4,10.4
	c-5.8,0-10.4-4.7-10.4-10.4V157.6c0-5.8,4.7-10.4,10.4-10.4c5.8,0,10.4,4.7,10.4,10.4v82h153.2l-81.5-81.5c-4.1-4.1-4.1-10.7,0-14.8
	s10.7-4.1,14.8,0L380,250L273.3,356.7z"/>
</svg>
